HIERARCHY
ROOT hip
{
  OFFSET 0 0 0
  CHANNELS 6 Xposition Yposition Zposition Zrotation Yrotation Xrotation
  JOINT abdomen
  {
    OFFSET 0 20.6881 -0.73152
    CHANNELS 3 Zrotation Xrotation Yrotation
    JOINT chest
    {
      OFFSET 0 11.7043 -0.48768
      CHANNELS 3 Zrotation Xrotation Yrotation
      JOINT neck
      {
        OFFSET 0 22.1894 -2.19456
        CHANNELS 3 Zrotation Xrotation Yrotation
        JOINT head
        {
          OFFSET -0.24384 7.07133 1.2192
          CHANNELS 3 Zrotation Xrotation Yrotation
          JOINT leftEye
          {
            OFFSET 4.14528 8.04674 8.04672
            CHANNELS 3 Zrotation Xrotation Yrotation
            End Site
            {
              OFFSET 1 0 0
            }
          }
          JOINT rightEye
          {
            OFFSET -3.6576 8.04674 8.04672
            CHANNELS 3 Zrotation Xrotation Yrotation
            End Site
            {
              OFFSET 1 0 0
            }
          }
        }
      }
      JOINT rCollar
      {
        OFFSET -2.68224 19.2634 -4.8768
        CHANNELS 3 Zrotation Xrotation Yrotation
        JOINT rShldr
        {
          OFFSET -8.77824 -1.95073 1.46304
          CHANNELS 3 Zrotation Xrotation Yrotation
          JOINT rForeArm
          {
            OFFSET -28.1742 -1.7115 0.48768
            CHANNELS 3 Zrotation Xrotation Yrotation
            JOINT rHand
            {
              OFFSET -22.5879 0.773209 7.07136
              CHANNELS 3 Zrotation Xrotation Yrotation
              JOINT rThumb1
              {
                OFFSET -1.2192 -0.487915 3.41376
                CHANNELS 3 Zrotation Xrotation Yrotation
                JOINT rThumb2
                {
                  OFFSET -3.37035 -0.52449 3.41376
                  CHANNELS 3 Zrotation Xrotation Yrotation
                  End Site
                  {
                    OFFSET -1.78271 -1.18214 1.43049
                  }
                }
              }
              JOINT rIndex1
              {
                OFFSET -7.75947 0.938293 5.60832
                CHANNELS 3 Zrotation Xrotation Yrotation
                JOINT rIndex2
                {
                  OFFSET -2.54057 -0.884171 1.56538
                  CHANNELS 3 Zrotation Xrotation Yrotation
                  End Site
                  {
                    OFFSET -1.62519 -0.234802 1.16502
                  }
                }
              }
              JOINT rMid1
              {
                OFFSET -8.24714 1.18213 3.41376
                CHANNELS 3 Zrotation Xrotation Yrotation
                JOINT rMid2
                {
                  OFFSET -3.10165 -0.590103 1.0647
                  CHANNELS 3 Zrotation Xrotation Yrotation
                  End Site
                  {
                    OFFSET -2.48547 -0.328903 0.83742
                  }
                }
              }
              JOINT rRing1
              {
                OFFSET -8.82822 0.546677 1.51678
                CHANNELS 3 Zrotation Xrotation Yrotation
                JOINT rRing2
                {
                  OFFSET -2.60934 -0.819778 -0.0198488
                  CHANNELS 3 Zrotation Xrotation Yrotation
                  End Site
                  {
                    OFFSET -2.33842 -0.294052 0.168128
                  }
                }
              }
              JOINT rPinky1
              {
                OFFSET -8.27202 -0.0477905 -0.4584
                CHANNELS 3 Zrotation Xrotation Yrotation
                JOINT rPinky2
                {
                  OFFSET -1.82734 -0.647385 -0.700984
                  CHANNELS 3 Zrotation Xrotation Yrotation
                  End Site
                  {
                    OFFSET -1.69225 -0.51767 -0.607171
                  }
                }
              }
            }
          }
        }
      }
      JOINT lCollar
      {
        OFFSET 2.68224 19.2634 -4.8768
        CHANNELS 3 Zrotation Xrotation Yrotation
        JOINT lShldr
        {
          OFFSET 8.77824 -1.95073 1.46304
          CHANNELS 3 Zrotation Xrotation Yrotation
          JOINT lForeArm
          {
            OFFSET 28.1742 -1.7115 0.48768
            CHANNELS 3 Zrotation Xrotation Yrotation
            JOINT lHand
            {
              OFFSET 22.5879 0.773209 7.07136
              CHANNELS 3 Zrotation Xrotation Yrotation
              JOINT lThumb1
              {
                OFFSET 1.2192 -0.487915 3.41376
                CHANNELS 3 Zrotation Xrotation Yrotation
                JOINT lThumb2
                {
                  OFFSET 3.37035 -0.52449 3.41376
                  CHANNELS 3 Zrotation Xrotation Yrotation
                  End Site
                  {
                    OFFSET 1.78271 -1.18214 1.43049
                  }
                }
              }
              JOINT lIndex1
              {
                OFFSET 7.75947 0.938293 5.60832
                CHANNELS 3 Zrotation Xrotation Yrotation
                JOINT lIndex2
                {
                  OFFSET 2.54057 -0.884171 1.56538
                  CHANNELS 3 Zrotation Xrotation Yrotation
                  End Site
                  {
                    OFFSET 1.62519 -0.234802 1.16502
                  }
                }
              }
              JOINT lMid1
              {
                OFFSET 8.24714 1.18213 3.41376
                CHANNELS 3 Zrotation Xrotation Yrotation
                JOINT lMid2
                {
                  OFFSET 3.10165 -0.590103 1.0647
                  CHANNELS 3 Zrotation Xrotation Yrotation
                  End Site
                  {
                    OFFSET 2.48547 -0.328903 0.83742
                  }
                }
              }
              JOINT lRing1
              {
                OFFSET 8.82822 0.546677 1.51678
                CHANNELS 3 Zrotation Xrotation Yrotation
                JOINT lRing2
                {
                  OFFSET 2.60934 -0.819778 -0.0198488
                  CHANNELS 3 Zrotation Xrotation Yrotation
                  End Site
                  {
                    OFFSET 2.33842 -0.294052 0.168128
                  }
                }
              }
              JOINT lPinky1
              {
                OFFSET 8.27202 -0.0477905 -0.4584
                CHANNELS 3 Zrotation Xrotation Yrotation
                JOINT lPinky2
                {
                  OFFSET 1.82734 -0.647385 -0.700984
                  CHANNELS 3 Zrotation Xrotation Yrotation
                  End Site
                  {
                    OFFSET 1.69225 -0.51767 -0.607171
                  }
                }
              }
            }
          }
        }
      }
    }
  }
  JOINT rButtock
  {
    OFFSET -8.77824 4.35084 1.2192
    CHANNELS 3 Zrotation Xrotation Yrotation
    JOINT rThigh
    {
      OFFSET 0 -1.70687 -2.19456
      CHANNELS 3 Zrotation Xrotation Yrotation
      JOINT rShin
      {
        OFFSET 0 -36.8199 0.73152
        CHANNELS 3 Zrotation Xrotation Yrotation
        JOINT rFoot
        {
          OFFSET 0.73152 -45.1104 -5.12064
          CHANNELS 3 Zrotation Xrotation Yrotation
          End Site
          {
            OFFSET -1.1221 -3.69964 12.103
          }
        }
      }
    }
  }
  JOINT lButtock
  {
    OFFSET 8.77824 4.35084 1.2192
    CHANNELS 3 Zrotation Xrotation Yrotation
    JOINT lThigh
    {
      OFFSET 0 -1.70687 -2.19456
      CHANNELS 3 Zrotation Xrotation Yrotation
      JOINT lShin
      {
        OFFSET 0 -36.8199 0.73152
        CHANNELS 3 Zrotation Xrotation Yrotation
        JOINT lFoot
        {
          OFFSET -0.73152 -45.1104 -5.12064
          CHANNELS 3 Zrotation Xrotation Yrotation
          End Site
          {
            OFFSET 1.1221 -3.69964 12.103
          }
        }
      }
    }
  }
}
MOTION
Frames:	4
Frame Time:	0.00833333
0.0 67.0175 0.0 -9.7728 -4.9557 21.4829 11.5688 -12.5631 9.68292 -1.51903 -2.34451 2.06868 -4.70067 1.29304 -2.60771 4.88037 -15.9211 -3.32382 -0.0 0.0 0.0 -0.0 0.0 0.0 2.24143e-14 2.59215e-13 -1.74943e-13 37.8495 70.3936 40.9535 -27.464 -28.026 64.0806 -0.809754 24.6744 3.70182 -1.9921e-09 -5.42408e-09 7.54488e-10 -3.42199e-09 -9.40469e-09 1.34033e-09 -1.9921e-09 -5.42407e-09 7.54473e-10 7.73091 5.47488 0.417314 -1.99211e-09 -5.42407e-09 7.54488e-10 2.90554 0.965183 0.102902 -1.9921e-09 -5.42407e-09 7.54487e-10 10.2786 0.731801 0.0259123 -1.99211e-09 -5.42407e-09 7.54494e-10 2.22167 -0.733487 -0.20892 2.24224e-14 2.59216e-13 -1.75167e-13 -104.177 49.5393 44.7233 28.4248 -36.6961 -78.1415 0.128948 -10.1399 1.44047 -3.28624e-11 -4.95656e-09 -2.53386e-09 -3.18642e-11 -8.51789e-09 -4.37851e-09 -3.2857e-11 -4.95654e-09 -2.53385e-09 -7.73091 5.47488 -0.417314 -3.28595e-11 -4.95655e-09 -2.53386e-09 -2.90554 0.965183 -0.102902 -3.28718e-11 -4.95655e-09 -2.53386e-09 -10.2786 0.731801 -0.0259123 -3.28599e-11 -4.95655e-09 -2.53387e-09 -2.22167 -0.733487 0.20892 -2.03217e-16 0.0 -3.88251e-19 16.0148 -11.7491 9.0334 -0.443747 50.5569 1.79279 -7.8145 -18.0337 -18.0422 2.03217e-16 0.0 3.88251e-19 81.2087 -81.8127 79.5445 1.37771 61.796 -1.05045 -0.0702843 -1.24432 -2.57384
0.0 67.456 0.0 -9.188 -4.4849 20.4595 10.5101 -12.495 9.70472 -1.66229 -2.01406 2.10534 -5.12139 1.49284 -3.08269 5.84313 -15.1665 -4.07359 -0.0 0.0 0.0 -0.0 0.0 0.0 1.96169e-13 -3.69838e-13 -3.72232e-14 37.2557 70.7569 42.4946 -27.5942 -28.5723 64.9544 -0.789704 24.3878 3.65315 9.56246e-10 1.81421e-09 -1.08729e-09 1.63389e-09 3.11862e-09 -1.8974e-09 9.56241e-10 1.81422e-09 -1.0873e-09 7.73091 5.47488 0.417314 9.56241e-10 1.81422e-09 -1.08729e-09 2.90554 0.965183 0.102902 9.56251e-10 1.81422e-09 -1.08729e-09 10.2786 0.731801 0.0259123 9.56244e-10 1.81422e-09 -1.08728e-09 2.22167 -0.733487 -0.20892 1.96206e-13 -3.69839e-13 -3.73684e-14 -104.443 49.7536 47.1179 28.3843 -37.4961 -79.4865 0.119264 -9.78656 1.38913 3.34322e-11 2.87109e-09 1.1772e-09 4.72968e-11 4.94466e-09 2.03832e-09 3.34369e-11 2.8711e-09 1.17721e-09 -7.73091 5.47488 -0.417314 3.34333e-11 2.8711e-09 1.1772e-09 -2.90554 0.965183 -0.102902 3.34232e-11 2.87109e-09 1.1772e-09 -10.2786 0.731801 -0.0259123 3.34359e-11 2.8711e-09 1.17719e-09 -2.22167 -0.733487 0.20892 -2.03217e-16 0.0 -3.88251e-19 14.703 -8.5668 8.01228 -0.4184 49.0354 1.67134 -5.33622 -13.1746 -14.8156 2.03217e-16 0.0 3.88251e-19 67.2924 -81.764 67.2236 1.15373 58.6032 -0.772443 -0.120371 1.11024 -4.86042
0.0 67.923 0.0 -8.626 -4.0649 19.5362 9.94563 -12.4491 9.82161 -1.88986 -1.7546 2.1501 -5.42144 1.64468 -3.52705 6.64888 -14.4415 -4.81665 -0.0 0.0 0.0 -0.0 0.0 0.0 2.79871e-13 -7.41068e-13 6.12754e-14 36.5847 70.9299 44.1088 -27.7036 -29.0678 65.7631 -0.784372 24.3119 3.64025 2.78577e-09 6.27635e-09 -2.13121e-09 4.77253e-09 1.0841e-08 -3.73554e-09 2.78576e-09 6.27636e-09 -2.13123e-09 7.73091 5.47488 0.417314 2.78576e-09 6.27636e-09 -2.13121e-09 2.90554 0.965183 0.102902 2.78577e-09 6.27636e-09 -2.13121e-09 10.2786 0.731801 0.0259123 2.78577e-09 6.27636e-09 -2.13121e-09 2.22167 -0.733487 -0.20892 2.79925e-13 -7.4107e-13 6.1176e-14 -104.348 50.178 48.8825 28.3186 -38.1529 -80.6713 0.113821 -9.57669 1.35872 7.47176e-11 7.37092e-09 3.34392e-09 9.77066e-11 1.26826e-08 5.78462e-09 7.47212e-11 7.37093e-09 3.34393e-09 -7.73091 5.47488 -0.417314 7.47172e-11 7.37093e-09 3.34392e-09 -2.90554 0.965183 -0.102902 7.47093e-11 7.37092e-09 3.34392e-09 -10.2786 0.731801 -0.0259123 7.47218e-11 7.37093e-09 3.34391e-09 -2.22167 -0.733487 0.20892 -2.03217e-16 0.0 -3.88251e-19 14.0165 -6.3018 7.02485 -0.425744 48.4756 1.59734 -3.60599 -8.69713 -12.1702 2.03217e-16 0.0 3.88251e-19 56.6812 -81.3295 57.809 1.03589 56.3715 -0.594165 -0.00344616 3.03543 -6.25954
0.0 68.2587 0.0 -8.5414 -3.599 18.7578 10.0824 -12.4092 10.1151 -2.25424 -1.65618 2.21535 -5.55662 1.73233 -3.93451 7.22699 -13.662 -5.57049 -0.0 0.0 0.0 -0.0 0.0 0.0 2.16284e-13 -7.08201e-13 1.08351e-13 36.0551 70.9223 45.5858 -27.8001 -29.5304 66.5063 -0.799223 24.5272 3.67672 2.93997e-09 6.6111e-09 -1.96058e-09 5.04053e-09 1.1426e-08 -3.44346e-09 2.93996e-09 6.61111e-09 -1.9606e-09 7.73091 5.47488 0.417314 2.93996e-09 6.61111e-09 -1.96058e-09 2.90554 0.965183 0.102902 2.93997e-09 6.61111e-09 -1.96058e-09 10.2786 0.731801 0.0259123 2.93996e-09 6.61111e-09 -1.96058e-09 2.22167 -0.733487 -0.20892 2.16346e-13 -7.08202e-13 1.08253e-13 -103.959 50.8865 50.1542 28.2532 -38.663 -81.6156 0.115709 -9.64605 1.36878 9.61643e-11 6.39394e-09 3.08135e-09 1.36208e-10 1.09965e-08 5.33011e-09 9.61657e-11 6.39395e-09 3.08136e-09 -7.73091 5.47488 -0.417314 9.61629e-11 6.39393e-09 3.08135e-09 -2.90554 0.965183 -0.102902 9.61575e-11 6.39394e-09 3.08135e-09 -10.2786 0.731801 -0.0259123 9.61678e-11 6.39394e-09 3.08134e-09 -2.22167 -0.733487 0.20892 -2.03217e-16 0.0 -3.88251e-19 14.0632 -5.07696 6.0572 -0.45554 49.0075 1.56979 -2.4046 -4.63685 -9.85114 2.03217e-16 0.0 3.88251e-19 50.7004 -80.6667 52.5556 0.996517 55.285 -0.488607 0.180179 4.71018 -6.42652
